<?xml version="1.0"?>
<svg xmlns="http://www.w3.org/2000/svg" xmlns:xlink="http://www.w3.org/1999/xlink" version="1.1" id="Capa_1" x="0px" y="0px" width="512px" height="512px" viewBox="0 0 29.824 29.824" style="enable-background:new 0 0 29.824 29.824;" xml:space="preserve" class=""><g><g>
	<g>
		<g>
			<path d="M2.851,8.908C2.554,8.952,2.257,8.976,1.966,8.958C1.742,8.946,1.541,9.097,1.49,9.316     c-0.143,0.641-0.092,1.231,0.155,1.754c0.294,0.621,0.847,1.1,1.6,1.385c0.118,0.044,0.247,0.039,0.36-0.014l8.399-3.968     c0.113-0.053,0.199-0.15,0.238-0.269c0.259-0.763,0.241-1.495-0.053-2.116c-0.696-1.475-2.786-2.054-5.201-1.439     c-0.23,0.059-0.377,0.283-0.339,0.519C6.827,6.298,5.917,7.62,4.465,8.38L2.043,6.602C1.736,6.375,1.302,6.444,1.079,6.75     C0.852,7.058,0.918,7.489,1.225,7.716L2.851,8.908z" data-original="#000000" class="active-path" data-old_color="#000000" fill="#FFA500"/>
			<path d="M18.309,8.45l8.388,3.993c0.112,0.054,0.241,0.059,0.358,0.015c0.754-0.282,1.312-0.76,1.604-1.38     c0.701-1.473-0.174-3.457-2.178-4.938c-0.19-0.143-0.457-0.115-0.615,0.063c-0.763,0.852-2.362,0.984-3.868,0.342l-0.156-3.001     c-0.021-0.381-0.346-0.673-0.726-0.653c-0.381,0.019-0.674,0.343-0.654,0.724l0.105,2.015c-0.225-0.203-0.431-0.417-0.602-0.653     c-0.132-0.182-0.376-0.242-0.578-0.142c-0.587,0.295-1.012,0.708-1.26,1.229c-0.295,0.62-0.315,1.352-0.062,2.115     C18.109,8.3,18.195,8.396,18.309,8.45z" data-original="#000000" class="active-path" data-old_color="#000000" fill="#FFA500"/>
			<path d="M14.913,10.28C6.689,10.28,0,16.97,0,25.192c0,0.963,0.78,1.742,1.741,1.742c0.962,0,1.742-0.779,1.742-1.742     c0-3.125,1.263-5.957,3.302-8.021v8.021c0,0.644,0.52,1.161,1.161,1.161c0.641,0,1.161-0.52,1.161-1.161v-9.828     c1.389-0.824,2.96-1.372,4.645-1.542v11.371c0,0.644,0.519,1.161,1.161,1.161c0.642,0,1.161-0.52,1.161-1.161V13.823     c1.684,0.171,3.255,0.719,4.644,1.542v9.828c0,0.644,0.521,1.161,1.161,1.161c0.644,0,1.161-0.52,1.161-1.161v-8.021     c2.039,2.064,3.302,4.898,3.302,8.021c0,0.963,0.78,1.742,1.742,1.742c0.961,0,1.74-0.779,1.74-1.742     C29.824,16.97,23.135,10.28,14.913,10.28z" data-original="#000000" class="active-path" data-old_color="#000000" fill="#FFA500"/>
		</g>
	</g>
</g></g> </svg>
