<?xml version="1.0"?>
<svg xmlns="http://www.w3.org/2000/svg" id="Capa_1" enable-background="new 0 0 512.003 512.003" height="512px" viewBox="0 0 512.003 512.003" width="512px" class=""><g><path d="m136 150.002c8.291 0 15 6.709 15 15s-6.709 15-15 15h-81.383c35.5 36.903 86.256 60 141.383 60h25.137c16.89 35.449 53.057 61 94.863 61 8.291 0 15-6.709 15-15v-37.973c18.105 10.503 30 31.146 30 52.973 0 33.091-26.909 60-60 60h-10.503c-17.271-36.284-53.994-60-94.497-60-5.537 0-10.62 3.047-13.228 7.925s-2.314 10.796.747 15.396c33.076 49.614 33.076 114.745 0 164.359-3.062 4.6-3.354 10.518-.747 15.396s7.69 7.925 13.228 7.925c40.503 0 77.227-23.716 94.497-60h10.503c115.796 0 211-96.204 211-212s-95.204-210-211-210h-286c-8.291 0-15 6.709-15 15 0 38.668 11.453 74.652 30.947 105h105.053zm109.395-34.395c-5.859-5.859-5.859-15.352 0-21.211s15.352-5.859 21.211 0c22.397 22.383 22.397 58.828 0 81.211-5.859 5.859-15.352 5.859-21.211 0s-5.859-15.352 0-21.211c10.693-10.693 10.693-28.096 0-38.789zm-60 0c-5.859-5.859-5.859-15.352 0-21.211s15.352-5.859 21.211 0c22.397 22.383 22.397 58.828 0 81.211-5.859 5.859-15.352 5.859-21.211 0s-5.859-15.352 0-21.211c10.693-10.693 10.693-28.096 0-38.789zm-49.395-25.605c8.284 0 15 6.716 15 15s-6.716 15-15 15-15-6.716-15-15 6.716-15 15-15z" data-original="#000000" class="active-path" data-old_color="#000000" fill="#FFA500"/><path d="m482.509 82.348c1.271-21.207 10.031-41.675 25.096-56.741 4.292-4.292 5.581-10.737 3.252-16.348-2.314-5.61-7.793-9.258-13.857-9.258h-47.578c-21.074 0-42.636 6.216-60.65 16.853 35.987 14.21 68.672 36.832 93.737 65.494z" data-original="#000000" class="active-path" data-old_color="#000000" fill="#FFA500"/></g> </svg>
