<?xml version="1.0"?>
<svg xmlns="http://www.w3.org/2000/svg" id="Capa_1" enable-background="new 0 0 512 512" height="512px" viewBox="0 0 512 512" width="512px"><g><path d="m48.348 356.985c3.706 1.755 8.257.128 10.01-3.573 17.402-36.712 36.163-81.614 43.357-136.305 7.631-58.001 24.311-107.11 48.238-142.022 27.31-39.849 62.99-60.055 106.047-60.055 44.839 0 81.614 21.856 109.302 64.962 2.243 3.493 6.894 4.505 10.385 2.262 3.493-2.243 4.505-6.893 2.263-10.384-14.453-22.501-31.596-40.012-50.951-52.047-21.156-13.153-45.044-19.823-70.999-19.823-24.908 0-47.935 6.148-68.442 18.273-18.845 11.142-35.669 27.399-50.004 48.316-25.257 36.853-42.803 88.224-50.74 148.557-6.924 52.627-25.136 96.173-42.038 131.83-1.779 3.749-.179 8.231 3.572 10.009z" data-original="#000000" class="active-path" data-old_color="#000000" fill="#FFA500"/><path d="m509.88 451.015c-4.092-25.019-16.833-51.044-31.585-81.178-20.997-42.889-44.795-91.5-53.109-154.691-5.836-44.366-16.681-83.438-32.231-116.133-1.784-3.749-6.269-5.339-10.016-3.559-3.748 1.783-5.341 6.267-3.559 10.015 14.665 30.832 25.351 69.436 30.904 111.638 8.635 65.63 34.072 117.589 54.51 159.338 14.23 29.065 26.518 54.167 30.252 76.996 4.883 29.864-.477 38.837-4.106 41.528-5.874 4.357-18.801 1.673-38.421-7.97-3.727-1.833-8.23-.296-10.06 3.429-1.831 3.724-.297 8.228 3.429 10.059 11.752 5.777 25.483 11.513 37.592 11.513 6.02 0 11.64-1.419 16.413-4.957 11.492-8.521 14.76-26.848 9.987-56.028z" data-original="#000000" class="active-path" data-old_color="#000000" fill="#FFA500"/><path d="m425.818 472.914c-7.517-3.913-12.425-6.051-16.414-7.152-18.877-5.211-30.981 5.661-41.662 15.25-10.943 9.826-20.393 18.314-37.573 15.027-12.314-2.355-18.658-9.59-26.003-17.966-10.034-11.443-21.408-24.412-48.159-24.416-.001 0-.002 0-.003 0s-.003 0-.004 0-.003 0-.004 0-.002 0-.003 0c-26.751.004-38.125 12.973-48.159 24.416-7.345 8.376-13.69 15.611-26.003 17.966-17.175 3.286-26.63-5.201-37.573-15.027-10.681-9.59-22.784-20.46-41.662-15.25-6.717 1.853-15.593 6.649-25.869 12.202-18.01 9.732-45.227 24.439-55.533 17.102-3.695-2.631-9.161-11.538-4.24-41.625 3.452-21.107 13.889-43.536 28.257-72.918 1.824-3.729.279-8.229-3.45-10.052-3.731-1.825-8.23-.279-10.053 3.449-14.939 30.548-25.805 53.959-29.588 77.096-4.823 29.486-1.435 47.9 10.355 56.294 4.644 3.306 10.074 4.682 15.984 4.682 16.912 0 37.762-11.267 55.413-20.805 9.077-4.904 17.651-9.538 22.722-10.937 10.435-2.88 16.973 2.386 27.621 11.946 11.557 10.376 25.939 23.294 50.44 18.606 17.386-3.325 26.468-13.681 34.481-22.818 9.078-10.353 16.919-19.294 36.865-19.296 19.946.001 27.787 8.943 36.865 19.296 8.013 9.138 17.095 19.493 34.481 22.818 3.557.68 6.898.989 10.051.989 18.562 0 30.51-10.725 40.389-19.595 10.648-9.558 17.181-14.824 27.621-11.946 3.727 1.029 9.474 3.914 13.472 5.996 3.68 1.918 8.22.487 10.136-3.196 1.915-3.681.484-8.22-3.198-10.136z" data-original="#000000" class="active-path" data-old_color="#000000" fill="#FFA500"/><path d="m189.597 151.549c-21.898 0-35.988 16.484-41.878 48.995-5.317 29.348-4.282 47.089 3.357 57.525 4.733 6.468 12.367 9.941 20.324 9.941 20.665 0 44.348-23.608 56.308-56.831 5.531-15.363 4.05-30.263-4.168-41.956-7.661-10.901-20.668-17.674-33.943-17.674zm23.969 54.54c-5.045 14.012-12.753 26.656-21.706 35.606-7.892 7.89-15.86 11.968-21.887 11.196-3.1-.399-5.188-1.539-6.767-3.698-4.8-6.558-5.034-22.025-.696-45.969 5.951-32.845 18.31-36.644 27.088-36.644 8.459 0 16.753 4.324 21.645 11.285 3.767 5.358 7.226 14.604 2.323 28.224z" data-original="#000000" class="active-path" data-old_color="#000000" fill="#FFA500"/><path d="m322.402 151.549c-13.275 0-26.281 6.772-33.944 17.673-8.218 11.693-9.699 26.594-4.168 41.956 11.961 33.226 35.642 56.834 56.308 56.831 7.958 0 15.591-3.473 20.324-9.941 7.639-10.436 8.673-28.177 3.357-57.525-5.889-32.51-19.979-48.994-41.877-48.994zm26.392 97.644c-1.579 2.159-3.667 3.299-6.768 3.698-6.002.778-13.991-3.305-21.886-11.196-8.953-8.95-16.661-21.594-21.706-35.606-4.903-13.619-1.443-22.865 2.323-28.224 4.893-6.961 13.187-11.285 21.646-11.285 8.778 0 21.137 3.799 27.087 36.644 4.338 23.944 4.104 39.411-.696 45.969z" data-original="#000000" class="active-path" data-old_color="#000000" fill="#FFA500"/></g> </svg>
